<?xml version="1.0" encoding="UTF-8"?>
<!-- Generator: Adobe Illustrator 15.1.0, SVG Export Plug-In . SVG Version: 6.00 Build 0)  -->
<!DOCTYPE svg PUBLIC "-//W3C//DTD SVG 1.0//EN" "http://www.w3.org/TR/2001/REC-SVG-20010904/DTD/svg10.dtd">
<svg version="1.0" id="Layer_1" xmlns="http://www.w3.org/2000/svg" xmlns:xlink="http://www.w3.org/1999/xlink" x="0px" y="0px" width="300px" height="294.61px" viewBox="0 0 300 294.61" enable-background="new 0 0 300 294.61" xml:space="preserve">
<g>
	<path fill-rule="evenodd" clip-rule="evenodd" fill="#2B2929" d="M73.538,40.289l-1.162,0.859l1.713,2.195   c0.156,0.203,0.276,0.457,0.36,0.768c0.087,0.308,0.071,0.633-0.042,0.981c-0.115,0.345-0.354,0.699-0.721,1.064   c-0.123,0.109-0.3,0.26-0.533,0.45c0.338,0.122,0.6,0.216,0.785,0.285c0.546,0.191,1.029,0.333,1.447,0.421   c0.421,0.091,1.022,0.199,1.804,0.331c0.253,0.033,0.604,0.082,1.049,0.144l-0.434,1.771c-0.664-0.122-1.202-0.234-1.621-0.336   c-1.309-0.295-2.486-0.607-3.531-0.932c-0.961-0.313-1.836-0.613-2.629-0.903c-0.339-0.123-0.791-0.29-1.355-0.506l0.628-1.666   c0.434,0.219,0.782,0.362,1.042,0.43c0.812,0.217,1.446,0.156,1.905-0.183c0.279-0.206,0.388-0.461,0.32-0.769   c-0.028-0.088-0.096-0.224-0.199-0.409l-1.531-1.996l-5.098,3.771l-0.914-1.193l7.8-5.772L73.538,40.289z M65.823,45.976   l-0.875,0.747l6.574,7.393l-1.474,1.258l-6.574-7.392l-2.093,1.786l3.685,4.126c0.139,0.157,0.232,0.283,0.276,0.385   c0.129,0.302,0.063,0.565-0.2,0.791c-0.217,0.186-0.949,0.262-2.19,0.23c-1.244-0.033-1.943-0.14-2.104-0.321   c-0.157-0.18-0.193-0.387-0.098-0.621c0.034-0.073,0.097-0.174,0.179-0.306l0.927-0.788l-1.983-2.209l-3.067,2.62l-1-1.129   l9.018-7.698L65.823,45.976z M56.81,53.985l-0.791,0.802l7.206,6.801l-1.375,1.396l-4.246-4.028l-2.414,2.455l1.093,1.038   c0.066,0.081,0.117,0.14,0.149,0.171c0.187,0.279,0.176,0.528-0.035,0.742c-0.232,0.236-0.909,0.303-2.028,0.202   c-1.122-0.104-1.791-0.256-2.009-0.465c-0.251-0.236-0.298-0.521-0.146-0.849c0.034-0.053,0.079-0.134,0.142-0.238l4.087-4.156   l-1.781-1.69l-6.074,6.178l-1.094-1.038l8.219-8.36L56.81,53.985z M48.943,62.145l-0.731,0.828l7.542,6.438l-1.295,1.464   l-7.543-6.437l-1.668,1.882l-1.149-0.979l1.147-1.297c-0.864-0.383-1.539-0.643-2.018-0.778c-1.469-0.385-2.488-0.252-3.064,0.401   c-0.338,0.38-0.524,0.803-0.562,1.263c-0.038,0.462,0.123,0.842,0.475,1.144c0.367,0.313,0.855,0.533,1.466,0.66   c0.476,0.093,0.773,0.121,0.892,0.08l-1.299,1.466c-0.354-0.03-0.626-0.063-0.811-0.104c-0.601-0.136-1.126-0.398-1.57-0.778   c-0.652-0.556-0.954-1.251-0.905-2.088c0.048-0.835,0.433-1.664,1.158-2.482c0.686-0.775,1.671-1.174,2.958-1.2   c0.911-0.009,1.929,0.169,3.048,0.534c0.475,0.189,0.945,0.374,1.408,0.553l1.372-1.55L48.943,62.145z M45.443,66.035l-0.966,1.353   L52.678,73l-1.135,1.589l-2.473-1.7c-0.024,0.527-0.068,0.951-0.131,1.272c-0.179,1-0.472,1.79-0.879,2.361   c-0.513,0.719-1.154,1.176-1.923,1.374c-0.768,0.197-1.495,0.063-2.179-0.407c-0.309-0.212-0.534-0.478-0.68-0.795   c-0.143-0.318-0.211-0.673-0.206-1.07c-0.559,0.162-1,0.26-1.319,0.293c-1.01,0.12-1.814-0.022-2.41-0.432   c-0.521-0.358-0.817-0.857-0.889-1.495c-0.071-0.639,0.081-1.222,0.454-1.744c0.443-0.623,0.964-0.972,1.565-1.049   c0.601-0.076,1.185,0.08,1.756,0.474c0.135,0.091,0.236,0.162,0.296,0.203l-0.779,1.096c-0.033-0.058-0.098-0.12-0.197-0.188   c-0.223-0.155-0.463-0.234-0.713-0.245c-0.34-0.016-0.598,0.097-0.771,0.341c-0.165,0.229-0.197,0.459-0.097,0.682   c0.099,0.223,0.274,0.418,0.522,0.589c0.396,0.272,0.975,0.37,1.731,0.293c0.244-0.033,0.59-0.102,1.039-0.213   c0.048-0.145,0.094-0.262,0.133-0.341c0.126-0.332,0.216-0.557,0.271-0.672c0.057-0.117,0.175-0.303,0.357-0.558   c0.139-0.196,0.252-0.354,0.337-0.476l1.394,0.223c-0.034,0.049-0.076,0.107-0.124,0.174c-0.047,0.066-0.106,0.149-0.175,0.244   c-0.399,0.562-0.66,1.073-0.785,1.532c-0.189,0.705-0.03,1.234,0.479,1.583c0.373,0.256,0.755,0.302,1.151,0.137   c0.293-0.126,0.534-0.321,0.726-0.588c0.338-0.476,0.508-1.221,0.511-2.235c0.008-0.868-0.038-1.372-0.142-1.514l-4.036-2.776   l-1.002,1.407l-1.248-0.859l3.088-4.328L45.443,66.035z M35.008,74.887l-1.212,1.833l-1.783-1.111l1.223-1.852L35.008,74.887z    M38.404,75.946l-0.643,0.975l8.38,5.345l-1.075,1.628l-8.395-5.327L35.3,80.643l-1.276-0.814l3.105-4.696L38.404,75.946z    M35.28,80.872l-0.544,1.003l8.835,4.589l-0.917,1.693l-8.835-4.588l-1.302,2.404l4.945,2.555c0.188,0.098,0.319,0.184,0.398,0.26   c0.232,0.238,0.268,0.509,0.104,0.811c-0.137,0.25-0.791,0.579-1.96,0.987c-1.174,0.406-1.865,0.553-2.079,0.44   c-0.215-0.113-0.324-0.293-0.321-0.546c0.008-0.08,0.028-0.195,0.058-0.346l0.574-1.065l-2.656-1.364l-1.908,3.526l-1.345-0.702   l5.61-10.361L35.28,80.872z M27.246,96.591l-0.427,1.035l9.275,3.653l-0.74,1.801l-5.476-2.172l-1.301,3.163l1.411,0.56   c0.091,0.054,0.159,0.089,0.201,0.105c0.282,0.191,0.364,0.425,0.252,0.699c-0.126,0.305-0.727,0.617-1.805,0.933   c-1.078,0.318-1.756,0.424-2.037,0.31c-0.323-0.126-0.476-0.374-0.458-0.734c0.009-0.063,0.021-0.154,0.039-0.273l2.202-5.357   l-2.294-0.91l-3.273,7.96l-1.413-0.559l4.435-10.776L27.246,96.591z M23.051,107.528l-0.345,1.108l9.556,2.87l-0.577,1.855   l-9.564-2.848l-0.738,2.366l-1.454-0.436l1.666-5.353L23.051,107.528z M21.363,112.41l-0.333,1.414l9.742,2.186l-0.443,1.891   l-3.364-0.761c0.35,0.626,0.557,1.292,0.627,1.994c0.067,0.703,0.028,1.375-0.123,2.012c-0.327,1.392-1.061,2.43-2.202,3.115   c-0.923,0.558-1.962,0.81-3.115,0.76c0.071-0.104,0.176-0.313,0.321-0.623c0.143-0.313,0.261-0.662,0.354-1.056   c0.163-0.695,0.132-1.323-0.096-1.875c-0.267-0.656-0.775-1.068-1.527-1.238c-0.53-0.122-0.975-0.116-1.333,0.017   c-0.443,0.173-0.729,0.522-0.851,1.044c-0.154,0.651,0.058,1.042,0.636,1.174c0.218,0.049,0.429-0.002,0.629-0.159   c0.201-0.156,0.324-0.339,0.375-0.551l1.254,0.308c-0.047,0.668-0.383,1.235-1.004,1.7c-0.493,0.375-1.076,0.482-1.756,0.328   c-0.649-0.147-1.116-0.523-1.4-1.131c-0.285-0.604-0.343-1.266-0.175-1.974c0.217-0.927,0.736-1.649,1.556-2.165   c0.821-0.516,1.709-0.664,2.669-0.448c0.944,0.215,1.673,0.752,2.184,1.618c0.512,0.863,0.664,1.738,0.456,2.622   c0.169-0.054,0.297-0.107,0.387-0.165c0.631-0.365,1.037-0.935,1.223-1.723c0.201-0.855,0.031-1.792-0.507-2.803   c-0.434-0.805-0.771-1.248-1.015-1.332l-3.94-0.895l-0.394,1.672l-1.483-0.335l1.165-4.954L21.363,112.41z M18.639,125.653   l-0.211,1.479l2.793,0.364c0.404,0.056,0.724,0.149,0.958,0.281c0.233,0.128,0.426,0.354,0.579,0.675   c0.104,0.24,0.173,0.552,0.212,0.932c0.01,0.136,0.013,0.324,0.01,0.564c0.329-0.164,0.584-0.288,0.765-0.369   c0.543-0.27,0.964-0.496,1.268-0.678c0.467-0.283,0.955-0.591,1.46-0.927c0.187-0.124,0.433-0.293,0.738-0.505l0.911,1.656   c-0.5,0.277-0.917,0.513-1.249,0.707c-1.163,0.651-2.173,1.195-3.032,1.63c-0.691,0.341-1.499,0.696-2.425,1.063   c-0.308,0.124-0.719,0.287-1.235,0.484l-0.74-1.566c0.428-0.122,0.749-0.22,0.958-0.294c0.652-0.273,1-0.562,1.042-0.872   c0.052-0.369-0.052-0.63-0.323-0.787c-0.083-0.042-0.233-0.086-0.441-0.129l-2.517-0.349l-0.785,5.479l-1.506-0.208l1.265-8.834   L18.639,125.653z M23.513,124.614l-0.293,2.055l-1.51,0.781l0.433-3.026L23.513,124.614z M14.004,135.004l-0.194,2.179   l-2.105-0.159l0.195-2.201L14.004,135.004z M16.986,135.178l-0.021,1.137l9.993,0.149l-0.034,1.941l-5.316-0.092l-0.036,2.075   l-1.403,0.957l0.055-3.054l-3.293-0.058l-0.058,3.189l2.817,0.026c0.362,0.006,0.684,0.065,0.964,0.173   c0.278,0.108,0.504,0.307,0.679,0.591c0.134,0.225,0.241,0.525,0.327,0.897c0.028,0.137,0.055,0.321,0.082,0.56   c0.307-0.201,0.542-0.354,0.711-0.456c0.505-0.333,0.897-0.609,1.174-0.826c0.43-0.338,0.875-0.699,1.336-1.094   c0.17-0.146,0.395-0.343,0.67-0.591l1.11,1.535c-0.462,0.335-0.846,0.62-1.154,0.852c-1.073,0.784-2.008,1.445-2.805,1.981   c-0.645,0.42-1.402,0.869-2.273,1.345c-0.291,0.158-0.679,0.369-1.167,0.628l-0.93-1.467c0.41-0.172,0.717-0.308,0.914-0.408   c0.614-0.348,0.922-0.677,0.928-0.988c0.005-0.373-0.132-0.62-0.419-0.744c-0.089-0.031-0.242-0.057-0.454-0.075l-2.541-0.043   l-0.101,5.53l-1.521-0.026l0.244-13.672L16.986,135.178z M17.058,154.67l0.077,1.092l9.971-0.685l0.137,1.936l-9.97,0.685   l0.176,2.492l-1.516,0.105l-0.123-1.714c-0.887,0.328-1.55,0.612-1.989,0.853c-1.311,0.746-1.939,1.549-1.876,2.41   c0.036,0.504,0.207,0.932,0.513,1.282c0.306,0.354,0.694,0.512,1.161,0.48c0.482-0.034,0.988-0.216,1.511-0.55   c0.403-0.267,0.632-0.454,0.687-0.563l0.138,1.937c-0.271,0.227-0.487,0.392-0.65,0.491c-0.521,0.321-1.079,0.5-1.667,0.541   c-0.862,0.059-1.576-0.223-2.145-0.848c-0.569-0.624-0.89-1.478-0.967-2.56c-0.073-1.023,0.336-1.99,1.228-2.903   c0.637-0.639,1.484-1.218,2.54-1.738c0.472-0.197,0.937-0.393,1.393-0.589l-0.146-2.047L17.058,154.67z M17.443,159.916   l0.708,5.668l2.274-0.297c-0.201-0.157-0.359-0.303-0.466-0.439c-0.341-0.423-0.548-0.901-0.614-1.434   c-0.099-0.795,0.106-1.525,0.62-2.185c0.511-0.66,1.188-1.042,2.029-1.144c0.933-0.113,1.962,0.136,3.093,0.75   c0.376,0.196,0.844,0.521,1.403,0.977l-0.909,1.525c-0.408-0.338-0.744-0.592-1.007-0.753c-0.826-0.501-1.576-0.71-2.254-0.629   c-0.435,0.054-0.796,0.215-1.083,0.491c-0.285,0.272-0.405,0.611-0.354,1.009c0.049,0.398,0.327,0.785,0.83,1.161   c0.169,0.111,0.415,0.255,0.743,0.426l5.612-0.678l0.238,1.905l-2.704,0.325c0.245,0.255,0.435,0.532,0.572,0.831   c0.136,0.299,0.226,0.617,0.268,0.956c0.113,0.901-0.092,1.697-0.616,2.39c-0.524,0.691-1.289,1.1-2.296,1.221   c-1.412,0.169-2.462-0.356-3.148-1.578c-0.219-0.407-0.419-1.036-0.602-1.88l1.478-0.63c-0.024,0.185-0.028,0.341-0.011,0.474   c0.061,0.487,0.227,0.894,0.498,1.222c0.375,0.447,0.879,0.633,1.51,0.559c0.513-0.062,0.919-0.25,1.223-0.566   c0.304-0.315,0.427-0.696,0.371-1.142c-0.058-0.476-0.285-0.884-0.68-1.229c-0.12-0.107-0.317-0.236-0.596-0.382l-5.185,0.626   l0.883,7.06l-1.511,0.183l-1.826-14.613L17.443,159.916z M19.572,175.214l0.319,1.094l9.6-2.726l0.54,1.845l-9.602,2.726   l0.765,2.618l5.364-1.538c0.204-0.057,0.361-0.085,0.472-0.085c0.334,0.016,0.55,0.185,0.646,0.513   c0.082,0.273-0.158,0.956-0.712,2.047c-0.557,1.095-0.95,1.671-1.183,1.736c-0.232,0.067-0.439,0.009-0.618-0.173   c-0.049-0.063-0.118-0.16-0.205-0.29l-0.338-1.159l-2.873,0.834l1.119,3.837l-1.463,0.411l-3.292-11.28L19.572,175.214z    M18.821,179.596l0.592,1.897c-0.57,0.714-0.975,1.296-1.215,1.742c-0.741,1.387-0.936,2.636-0.59,3.746   c0.216,0.695,0.573,1.164,1.076,1.402c0.502,0.238,1.072,0.262,1.709,0.07c0.302-0.093,0.622-0.234,0.958-0.431   c0.108-0.063,0.239-0.147,0.397-0.255l-0.4-1.281l1.455-0.438l0.333,1.067l9.551-2.891l0.577,1.855l-9.551,2.891l0.738,2.368   l-1.456,0.438l-0.744-2.389c-0.181,0.134-0.331,0.238-0.448,0.31c-0.375,0.227-0.735,0.395-1.081,0.498   c-0.999,0.301-1.916,0.196-2.746-0.317c-0.834-0.513-1.43-1.35-1.793-2.518c-0.333-1.067-0.273-2.268,0.184-3.603   c0.327-0.983,0.829-1.964,1.504-2.947C18.188,180.406,18.505,180,18.821,179.596z M24.446,191.457l0.427,1.034l9.257-3.696   l0.74,1.799l-9.258,3.697l0.943,2.296l-1.41,0.559l-0.841-2.047l-2.463,5.742l-1.482-0.855l3.45-6.085l-0.774-1.883L24.446,191.457   z M32.495,196.766l-5,2.186l1.044,2.302l2.385-1.042l1.525,3.362c0.087,0.189,0.188,0.321,0.303,0.394   c0.116,0.069,0.289,0.055,0.525-0.048c0.305-0.134,0.466-0.382,0.48-0.747c0.007-0.281-0.025-0.459-0.095-0.545   c-0.299-0.438-0.536-0.849-0.708-1.228c-0.117-0.259-0.19-0.437-0.215-0.528c-0.026-0.098-0.08-0.304-0.159-0.627l1.129-0.91   c0.002,0.081,0.037,0.239,0.101,0.471c0.063,0.233,0.138,0.441,0.225,0.634c0.27,0.596,0.551,0.979,0.841,1.145   c0.292,0.166,0.63,0.164,1.018-0.005c0.347-0.151,0.532-0.436,0.559-0.856c0.012-0.297-0.05-0.604-0.194-0.915   c-0.321-0.709-1.041-1.426-2.167-2.152C33.717,197.411,33.184,197.113,32.495,196.766z M26.229,196.16l0.472,1.038l9.121-4.012   l0.794,1.752l-2.272,1.018c0.609,0.432,1.078,0.792,1.406,1.07c0.999,0.849,1.658,1.627,1.977,2.334   c0.346,0.762,0.457,1.534,0.332,2.321c-0.149,0.879-0.549,1.459-1.197,1.743c-0.5,0.22-1.062,0.222-1.689,0.007   c0.04,0.161-0.064,0.517-0.313,1.065c-0.321,0.677-0.717,1.119-1.188,1.324c-0.416,0.183-0.831,0.206-1.25,0.07   c-0.418-0.133-0.713-0.399-0.893-0.792l-1.21-2.669l-1.039,0.454l2.643,5.826l-1.389,0.608l-5.691-12.554L26.229,196.16z    M32.298,208.624l0.551,0.976l8.73-4.777l0.958,1.697l-8.73,4.777l1.223,2.165l-1.33,0.725l-1.387-2.456l-2.025,6.076l-1.329-0.835   l2.914-6.023l-0.903-1.6L32.298,208.624z M33.083,213.096l0.564,0.994l-0.083,4.688l-1.531-0.138L33.083,213.096z M41.972,212.146   l5.248,2.578l-0.773,1.669l-5.608-3.631L41.972,212.146z M40.159,213.746l-3.526,2.164l1.854,2.913l3.064-1.88   c0.422-0.26,0.702-0.572,0.837-0.936c0.132-0.362,0.062-0.766-0.22-1.207c-0.248-0.39-0.624-0.686-1.127-0.886   C40.661,213.763,40.366,213.707,40.159,213.746z M34.997,213.337l0.613,0.965l8.466-5.221l1.021,1.609l-3.244,2.018   c0.629,0.284,1.144,0.739,1.547,1.374c0.594,0.936,0.698,1.911,0.307,2.927c-0.298,0.766-0.69,1.298-1.179,1.597l-3.006,1.844   l1.215,1.911l-1.29,0.792l-5.74-9.024L34.997,213.337z M50.461,226.787l-3.719,3.175l1.878,2.121   c0.059-0.294,0.183-0.598,0.375-0.904c0.189-0.306,0.453-0.597,0.785-0.881c0.582-0.498,1.175-0.732,1.78-0.708   c0.604,0.025,1.206,0.266,1.809,0.717c0.59-0.897,0.556-1.785-0.099-2.663c-0.359-0.404-0.823-0.685-1.391-0.839   C51.309,226.651,50.839,226.645,50.461,226.787z M44.703,227.656l0.759,0.857l7.528-6.456l1.295,1.465l-2.091,1.786   c0.433,0.125,0.81,0.282,1.135,0.467c0.322,0.185,0.631,0.44,0.917,0.766c0.825,0.931,1.193,2.004,1.107,3.224   c-0.085,1.216-0.605,2.229-1.554,3.039c-0.094-0.196-0.218-0.383-0.377-0.562c-0.338-0.385-0.707-0.63-1.106-0.742   c-0.526-0.142-1.025-0.013-1.494,0.388c-0.262,0.224-0.467,0.533-0.62,0.93c-0.151,0.397-0.213,0.68-0.182,0.849l2.474,2.794   l-1.149,0.981l-7.794-8.804L44.703,227.656z M52.249,236.221l0.758,0.8l7.31-6.692l1.347,1.418l-7.309,6.693l1.734,1.826   l-1.111,1.019l-1.193-1.254c-0.478,0.804-0.813,1.436-1,1.89c-0.542,1.391-0.514,2.404,0.086,3.035   c0.351,0.368,0.758,0.596,1.221,0.681c0.464,0.084,0.865-0.032,1.21-0.345c0.352-0.324,0.629-0.778,0.82-1.361   c0.144-0.458,0.203-0.746,0.175-0.864l1.348,1.422c-0.067,0.342-0.129,0.604-0.19,0.781c-0.201,0.572-0.521,1.057-0.952,1.452   c-0.631,0.577-1.366,0.8-2.208,0.666c-0.842-0.136-1.64-0.599-2.393-1.394c-0.712-0.749-1.015-1.754-0.906-3.014   c0.086-0.891,0.372-1.865,0.86-2.922c0.241-0.444,0.475-0.882,0.705-1.317l-1.426-1.502L52.249,236.221z M55.938,239.862   l0.833,0.789l6.925-7.075l1.455,1.379l-4.642,4.653l2.923,2.771c0.164,0.135,0.299,0.222,0.406,0.262   c0.347,0.122,0.657,0.014,0.929-0.327c0.543-0.684,0.872-1.75,0.979-3.197c0.09-1.259,0.075-1.944-0.044-2.06l1.775,0.102   c0.031,1.085,0.02,1.934-0.031,2.546c-0.166,1.868-0.616,3.179-1.354,3.926c-0.557,0.567-1.168,0.846-1.831,0.837   c-0.526-0.002-0.947-0.152-1.262-0.451l-3.529-3.349l-1.294,1.316l6.306,5.98l-1.057,1.074l-8.544-8.104L55.938,239.862z    M64.768,247.795l1.13,0.901l1.755-2.166c0.164-0.195,0.385-0.372,0.67-0.528c0.284-0.156,0.611-0.221,0.981-0.194   c0.368,0.023,0.777,0.166,1.224,0.428c0.14,0.09,0.331,0.226,0.574,0.4c0.04-0.353,0.068-0.626,0.093-0.817   c0.056-0.568,0.081-1.063,0.068-1.483c-0.013-0.42-0.051-1.02-0.111-1.797c-0.028-0.251-0.066-0.596-0.11-1.033l1.853-0.019   c0.04,0.663,0.06,1.203,0.06,1.627c0.025,1.319,0.002,2.518-0.067,3.59c-0.075,0.993-0.162,1.9-0.258,2.725   c-0.038,0.354-0.093,0.825-0.17,1.413l-1.797-0.193c0.113-0.466,0.168-0.832,0.173-1.098c0.018-0.828-0.196-1.418-0.641-1.772   c-0.272-0.217-0.551-0.257-0.837-0.12c-0.08,0.05-0.201,0.146-0.356,0.289l-1.6,1.942l4.958,3.944l-0.957,1.16l-7.588-6.035   L64.768,247.795z M72.299,253.665l0.968,0.666l5.732-8.04l1.619,1.114l-5.713,8.051l2.063,1.421l-0.871,1.225l-4.669-3.212   L72.299,253.665z M76.677,256.854l1.22,0.692l4.978-8.514l1.712,0.97l-2.492,4.282l2.439,1.383l0.774-1.313   c0.137-0.146,0.257-0.233,0.36-0.259c0.205-0.057,0.412-0.024,0.622,0.094c0.207,0.118,0.479,0.77,0.807,1.951   c0.332,1.185,0.434,1.88,0.313,2.085c-0.143,0.243-0.321,0.384-0.533,0.419c-0.063,0.014-0.16,0.005-0.293-0.04l-1.219-0.69   l-1.492,2.582c-0.043,0.162-0.065,0.29-0.065,0.374c0.026,0.29,0.188,0.518,0.49,0.688c0.196,0.111,0.407,0.14,0.637,0.08   c0.225-0.061,0.401-0.192,0.521-0.399c0.063-0.104,0.121-0.266,0.183-0.488c0.023-0.071,0.052-0.179,0.08-0.316l1.18,0.669   c-0.035,0.325-0.118,0.604-0.255,0.834c-0.34,0.582-0.808,0.937-1.401,1.074c-0.596,0.132-1.196,0.029-1.8-0.314   c-0.669-0.376-1.103-0.876-1.304-1.5c-0.207-0.62-0.136-1.223,0.204-1.8L83.751,257l-2.458-1.393l-1.685,2.909l1.495,0.848   l-0.76,1.293l-4.425-2.511L76.677,256.854z"/>
	<path fill-rule="evenodd" clip-rule="evenodd" fill="#2B2929" d="M271.935,181.136l3.692-0.468l-2.867-2.362L271.935,181.136z    M271.344,181.225l0.965-3.311l-0.813-0.654c-0.27-0.216-0.509-0.352-0.709-0.409c-0.27-0.076-0.497-0.024-0.685,0.15   c-0.109,0.103-0.257,0.394-0.438,0.872l-0.261-0.075l0.912-3.113l0.259,0.071c-0.045,0.349,0.016,0.666,0.185,0.946   c0.168,0.283,0.571,0.687,1.204,1.209l6.635,5.496l-0.038,0.131l-8.811,1.173c-0.836,0.115-1.378,0.248-1.632,0.4   c-0.192,0.118-0.342,0.318-0.448,0.594l-0.259-0.075l1.324-4.531l0.259,0.074l-0.056,0.186c-0.104,0.364-0.13,0.635-0.067,0.81   c0.043,0.122,0.137,0.205,0.281,0.245c0.083,0.025,0.172,0.035,0.27,0.03c0.045,0.002,0.241-0.017,0.589-0.057L271.344,181.225z    M280.584,174.83l-3.454-0.539l0.045-0.264c0.997-0.169,1.79-0.533,2.382-1.094c0.595-0.555,0.954-1.208,1.074-1.963   c0.116-0.718,0.005-1.349-0.33-1.892c-0.334-0.542-0.852-0.97-1.559-1.283c-0.707-0.314-1.445-0.53-2.221-0.649   c-0.941-0.148-1.784-0.168-2.526-0.061c-0.74,0.107-1.318,0.377-1.733,0.812c-0.407,0.434-0.669,0.983-0.775,1.651   c-0.036,0.233-0.052,0.472-0.036,0.724c0.007,0.254,0.04,0.514,0.094,0.788l2.041,0.315c0.383,0.061,0.64,0.071,0.76,0.037   c0.123-0.033,0.243-0.127,0.361-0.274c0.116-0.147,0.196-0.34,0.234-0.572l0.04-0.248l0.266,0.042l-0.754,4.675l-0.268-0.04   c0.033-0.358,0.022-0.611-0.027-0.764c-0.056-0.149-0.162-0.279-0.32-0.381c-0.085-0.056-0.306-0.112-0.665-0.167l-2.038-0.316   c-0.179-0.658-0.287-1.332-0.321-2.02c-0.035-0.687,0.003-1.387,0.121-2.103c0.145-0.915,0.396-1.654,0.747-2.218   c0.35-0.563,0.765-1.046,1.251-1.443c0.488-0.395,1.01-0.683,1.567-0.865c0.72-0.226,1.491-0.279,2.316-0.148   c1.475,0.229,2.636,0.931,3.488,2.106c0.854,1.176,1.157,2.534,0.905,4.08c-0.076,0.479-0.181,0.902-0.319,1.273   c-0.073,0.202-0.24,0.521-0.495,0.962c-0.256,0.436-0.39,0.7-0.403,0.783c-0.022,0.133,0.007,0.263,0.087,0.391   c0.083,0.131,0.252,0.264,0.511,0.4L280.584,174.83z M282.609,160.667l-0.271-0.018c-0.02-0.323-0.098-0.578-0.233-0.758   c-0.188-0.255-0.719-0.668-1.591-1.249l-3.434-2.352l-2.395-0.165c-0.511-0.035-0.832-0.033-0.962,0.011   c-0.124,0.042-0.242,0.141-0.348,0.288c-0.106,0.152-0.169,0.353-0.189,0.613l-0.035,0.542l-0.272-0.019l0.391-5.455l0.27,0.019   l-0.038,0.51c-0.02,0.286,0.018,0.515,0.104,0.691c0.059,0.129,0.172,0.234,0.333,0.317c0.109,0.063,0.414,0.109,0.914,0.144   l1.986,0.136l4.404-1.995c0.87-0.4,1.385-0.685,1.546-0.862c0.162-0.175,0.256-0.419,0.283-0.73l0.271,0.018l-0.332,4.662   l-0.272-0.018l0.016-0.208c0.019-0.281-0.006-0.481-0.084-0.6c-0.074-0.118-0.156-0.177-0.248-0.184   c-0.176-0.011-0.629,0.147-1.362,0.481l-3.405,1.532l2.863,1.956c0.7,0.483,1.169,0.734,1.407,0.75   c0.132,0.01,0.243-0.045,0.341-0.164c0.132-0.154,0.226-0.45,0.281-0.88l0.274,0.018L282.609,160.667z M283.362,148.046   l-3.496,0.059l-0.005-0.268c0.952-0.338,1.671-0.83,2.154-1.483c0.486-0.647,0.723-1.354,0.709-2.118   c-0.013-0.726-0.231-1.327-0.657-1.806c-0.426-0.478-1.011-0.81-1.762-0.997c-0.749-0.188-1.519-0.275-2.304-0.262   c-0.952,0.017-1.784,0.141-2.497,0.373c-0.712,0.233-1.233,0.596-1.563,1.096c-0.328,0.496-0.481,1.083-0.471,1.756   c0.002,0.236,0.031,0.476,0.089,0.722c0.054,0.248,0.134,0.5,0.234,0.758l2.065-0.037c0.39-0.007,0.642-0.039,0.756-0.094   c0.111-0.055,0.216-0.167,0.306-0.331c0.089-0.166,0.134-0.369,0.129-0.604l-0.005-0.252l0.271-0.003l0.085,4.733l-0.271,0.005   c-0.033-0.357-0.085-0.604-0.165-0.748c-0.078-0.137-0.205-0.245-0.384-0.319c-0.091-0.042-0.318-0.058-0.68-0.052l-2.064,0.036   c-0.295-0.619-0.518-1.262-0.674-1.936c-0.156-0.668-0.241-1.365-0.254-2.09c-0.019-0.924,0.098-1.696,0.343-2.311   c0.248-0.614,0.571-1.161,0.981-1.635c0.408-0.472,0.87-0.845,1.387-1.121c0.672-0.344,1.421-0.527,2.257-0.542   c1.49-0.026,2.761,0.468,3.809,1.481c1.046,1.013,1.584,2.298,1.612,3.862c0.009,0.483-0.02,0.919-0.091,1.31   c-0.036,0.21-0.144,0.553-0.317,1.031c-0.174,0.474-0.261,0.756-0.259,0.841c0.003,0.135,0.054,0.256,0.156,0.369   c0.103,0.114,0.295,0.215,0.571,0.308L283.362,148.046z M281.737,131.133c-0.125-0.885-0.681-1.493-1.666-1.829   c-0.805-0.269-1.918-0.307-3.325-0.113c-1.679,0.233-2.876,0.691-3.594,1.38c-0.504,0.481-0.705,1.086-0.598,1.813   c0.068,0.487,0.249,0.88,0.535,1.173c0.367,0.375,0.907,0.631,1.623,0.771c0.711,0.138,1.614,0.133,2.705-0.019   c1.302-0.178,2.257-0.431,2.865-0.758c0.611-0.328,1.023-0.691,1.24-1.097C281.732,132.052,281.807,131.61,281.737,131.133z    M282.189,130.979c0.279,1.531,0,2.843-0.834,3.938c-0.834,1.094-1.979,1.744-3.44,1.944c-1.246,0.172-2.393-0.032-3.44-0.62   c-1.396-0.776-2.217-2.03-2.465-3.763c-0.247-1.734,0.159-3.161,1.225-4.277c0.839-0.879,1.909-1.411,3.207-1.59   c1.46-0.201,2.749,0.12,3.859,0.959C281.414,128.414,282.045,129.549,282.189,130.979z M275.036,125.349l-3.472,0.472l-2.132-8.397   l0.263-0.064l0.078,0.314c0.069,0.273,0.177,0.483,0.316,0.625c0.099,0.105,0.236,0.169,0.415,0.197   c0.123,0.021,0.429-0.024,0.914-0.143l6.333-1.551c0.493-0.12,0.792-0.223,0.903-0.304s0.191-0.208,0.245-0.389   c0.052-0.179,0.045-0.4-0.022-0.667l-0.08-0.313l0.266-0.064l1.28,5.044l-0.264,0.063l-0.104-0.41   c-0.071-0.275-0.177-0.484-0.316-0.628c-0.101-0.102-0.234-0.171-0.415-0.203c-0.127-0.022-0.433,0.025-0.914,0.144l-6.135,1.501   c-0.493,0.123-0.801,0.227-0.921,0.314c-0.12,0.09-0.194,0.223-0.221,0.403c-0.012,0.128,0.04,0.412,0.153,0.858l0.199,0.788   c0.127,0.504,0.325,0.899,0.588,1.192c0.264,0.289,0.623,0.51,1.073,0.658c0.45,0.149,1.081,0.242,1.896,0.273L275.036,125.349z    M276.996,108.884c-0.268-0.855-0.912-1.369-1.938-1.55c-0.839-0.144-1.942-0.009-3.303,0.4c-1.621,0.487-2.729,1.125-3.331,1.915   c-0.42,0.551-0.52,1.181-0.302,1.882c0.146,0.472,0.386,0.832,0.716,1.077c0.424,0.313,1.002,0.483,1.729,0.513   c0.723,0.026,1.614-0.118,2.667-0.434c1.258-0.378,2.161-0.775,2.709-1.189c0.554-0.419,0.899-0.842,1.049-1.274   C277.137,109.792,277.139,109.345,276.996,108.884z M277.418,108.665c0.52,1.468,0.45,2.807-0.196,4.015   c-0.649,1.211-1.68,2.027-3.089,2.45c-1.204,0.362-2.37,0.337-3.498-0.083c-1.501-0.554-2.512-1.666-3.033-3.338   c-0.52-1.676-0.346-3.147,0.526-4.413c0.689-0.998,1.661-1.686,2.917-2.064c1.409-0.423,2.731-0.303,3.965,0.355   C276.245,106.247,277.045,107.272,277.418,108.665z M272.463,95.819l-3.755,6.789l3.931-1.638c0.549-0.229,0.884-0.459,1.013-0.694   c0.167-0.319,0.141-0.727-0.085-1.223l0.252-0.104l1.28,2.963l-0.252,0.104c-0.212-0.358-0.386-0.584-0.521-0.682   c-0.134-0.099-0.306-0.147-0.516-0.146c-0.207,0.002-0.528,0.095-0.959,0.273l-7.608,3.171l-0.096-0.225l4.983-9.238l-5.809,2.421   c-0.524,0.22-0.827,0.483-0.91,0.798c-0.082,0.312-0.058,0.622,0.072,0.924l0.093,0.212l-0.249,0.104l-1.376-3.182l0.25-0.104   c0.216,0.493,0.47,0.793,0.756,0.903c0.285,0.11,0.669,0.065,1.157-0.137l6.446-2.687l0.163-0.298   c0.158-0.288,0.243-0.522,0.259-0.701c0.013-0.177-0.036-0.404-0.143-0.68l0.249-0.105L272.463,95.819z M262.493,87.598   l-2.712,1.417c-0.448,0.234-0.716,0.403-0.801,0.509c-0.087,0.109-0.131,0.256-0.141,0.439c-0.009,0.188,0.054,0.4,0.186,0.643   l0.153,0.284l-0.238,0.125l-2.435-4.499l0.236-0.124l0.153,0.284c0.137,0.25,0.292,0.428,0.464,0.532   c0.121,0.08,0.27,0.11,0.45,0.091c0.125-0.005,0.408-0.123,0.85-0.355l5.763-3.008c0.45-0.234,0.718-0.402,0.805-0.509   c0.09-0.105,0.132-0.251,0.141-0.436c0.007-0.184-0.054-0.399-0.185-0.639l-0.154-0.287l0.238-0.125l2.438,4.499l-0.241,0.125   l-0.153-0.285c-0.136-0.249-0.29-0.427-0.459-0.532c-0.125-0.077-0.272-0.111-0.455-0.097c-0.127,0.004-0.413,0.127-0.853,0.355   l-2.479,1.297l1.644,3.038l2.482-1.295c0.448-0.234,0.716-0.406,0.805-0.508c0.085-0.107,0.132-0.251,0.139-0.439   c0.004-0.188-0.057-0.4-0.188-0.644l-0.154-0.281l0.243-0.125l2.433,4.495l-0.24,0.126l-0.149-0.279   c-0.139-0.254-0.292-0.432-0.462-0.533c-0.123-0.077-0.27-0.11-0.455-0.098c-0.127,0.008-0.412,0.126-0.852,0.355l-5.763,3.01   c-0.447,0.234-0.713,0.405-0.803,0.509c-0.087,0.105-0.134,0.252-0.138,0.438c-0.007,0.191,0.056,0.403,0.185,0.646l0.152,0.279   l-0.239,0.124l-2.435-4.496l0.238-0.124l0.154,0.281c0.136,0.251,0.292,0.431,0.461,0.533c0.118,0.076,0.271,0.108,0.453,0.096   c0.125-0.006,0.408-0.124,0.852-0.355l2.712-1.417L262.493,87.598z M264.436,80.072l-2.882,1.84l-0.153-0.235   c0.636-0.656,0.992-1.353,1.077-2.093c0.08-0.736-0.081-1.413-0.484-2.024c-0.337-0.51-0.796-0.881-1.376-1.115   c-0.582-0.236-1.18-0.301-1.793-0.188c-0.784,0.141-1.556,0.453-2.313,0.935c-0.744,0.475-1.362,0.999-1.851,1.574   c-0.49,0.577-0.763,1.159-0.812,1.753c-0.056,0.593,0.127,1.203,0.542,1.832c0.339,0.514,0.765,0.913,1.277,1.193   c0.514,0.284,1.202,0.482,2.081,0.6l-0.721,0.457c-0.789-0.148-1.458-0.4-2.005-0.758c-0.551-0.356-1.041-0.865-1.48-1.529   c-0.575-0.872-0.909-1.761-1.001-2.666c-0.092-0.902,0.076-1.752,0.497-2.545c0.426-0.792,1.013-1.432,1.767-1.911   c0.794-0.505,1.681-0.783,2.664-0.826c0.981-0.048,1.898,0.149,2.748,0.592c0.854,0.442,1.534,1.057,2.049,1.835   c0.379,0.576,0.658,1.261,0.827,2.062c0.099,0.465,0.177,0.747,0.243,0.848c0.085,0.129,0.205,0.209,0.366,0.243   c0.16,0.032,0.352-0.003,0.577-0.105L264.436,80.072z M254.26,66.966l-3.185,2.442l0.123,0.153c0.388,0.487,0.823,0.72,1.312,0.701   c0.483-0.02,1.055-0.234,1.71-0.639l0.172,0.215l-4.097,3.142l-0.172-0.215c0.413-0.387,0.7-0.764,0.872-1.125   c0.167-0.368,0.226-0.682,0.17-0.951c-0.056-0.265-0.229-0.584-0.522-0.949l-2.2,1.691c-0.431,0.33-0.681,0.547-0.747,0.658   c-0.069,0.109-0.094,0.239-0.076,0.383c0.014,0.145,0.109,0.327,0.288,0.547l0.363,0.457c0.568,0.718,1.195,1.163,1.878,1.336   c0.68,0.175,1.444,0.088,2.287-0.253l0.165,0.208l-2.761,1.564l-5.28-6.639l0.212-0.165l0.205,0.255   c0.177,0.223,0.359,0.37,0.547,0.444c0.131,0.059,0.285,0.063,0.459,0.016c0.125-0.028,0.384-0.193,0.778-0.495l5.145-3.946   c0.354-0.272,0.562-0.449,0.629-0.531c0.103-0.141,0.149-0.29,0.145-0.446c-0.009-0.229-0.109-0.465-0.308-0.716l-0.203-0.253   l0.212-0.166l5.115,6.429l-2.314,1.774l-0.169-0.214c0.479-0.544,0.763-1.007,0.847-1.395c0.09-0.387,0.05-0.805-0.127-1.257   c-0.096-0.266-0.377-0.686-0.841-1.269L254.26,66.966z M251.234,62.302l-1.934,1.834l-0.183-0.185   c0.336-0.537,0.537-0.962,0.6-1.28c0.064-0.321,0.038-0.651-0.078-0.997c-0.064-0.192-0.259-0.449-0.58-0.776l-0.513-0.522   l-5.508,5.223c-0.366,0.347-0.575,0.581-0.627,0.706c-0.054,0.129-0.056,0.282-0.009,0.461c0.042,0.182,0.163,0.372,0.359,0.57   l0.229,0.234l-0.194,0.184l-3.61-3.672l0.194-0.184l0.229,0.234c0.198,0.203,0.399,0.332,0.594,0.386   c0.138,0.044,0.292,0.033,0.461-0.03c0.121-0.038,0.359-0.229,0.721-0.57l5.508-5.221l-0.5-0.51   c-0.466-0.47-0.902-0.719-1.317-0.737c-0.58-0.035-1.171,0.164-1.777,0.584l-0.191-0.196l1.933-1.833L251.234,62.302z    M237.766,49.86l-2.621,3.068l0.222,0.181c0.332,0.277,0.653,0.453,0.947,0.529c0.301,0.078,0.622,0.059,0.973-0.055   c0.348-0.115,0.718-0.351,1.104-0.714l0.194,0.161l-3.205,3.75l-0.193-0.16c0.535-0.77,0.737-1.395,0.617-1.878   c-0.125-0.487-0.386-0.896-0.785-1.226l-0.221-0.181l-1.951,2.283c-0.327,0.384-0.506,0.64-0.546,0.771   c-0.04,0.133-0.024,0.287,0.038,0.458c0.064,0.176,0.202,0.352,0.414,0.528l0.252,0.208l-0.174,0.202l-3.974-3.273l0.174-0.204   l0.252,0.207c0.221,0.181,0.433,0.288,0.632,0.324c0.143,0.029,0.292,0.001,0.45-0.082c0.116-0.052,0.332-0.265,0.655-0.645   l4.192-4.909c0.328-0.382,0.513-0.637,0.553-0.766c0.043-0.129,0.029-0.282-0.035-0.455c-0.067-0.176-0.203-0.352-0.415-0.526   l-0.252-0.208l0.174-0.205l6.413,5.285l-1.83,2.143l-0.23-0.189c0.38-0.546,0.563-1.029,0.556-1.447   c-0.009-0.421-0.174-0.846-0.497-1.282c-0.177-0.236-0.569-0.606-1.173-1.105L237.766,49.86z M230.027,43.357   c-0.718-0.548-1.545-0.606-2.491-0.176c-0.771,0.353-1.597,1.086-2.473,2.188c-1.044,1.311-1.579,2.458-1.61,3.443   c-0.02,0.69,0.264,1.262,0.853,1.714c0.395,0.303,0.803,0.464,1.215,0.478c0.531,0.018,1.102-0.166,1.715-0.553   c0.608-0.386,1.256-1.006,1.934-1.858c0.81-1.017,1.315-1.852,1.522-2.5c0.208-0.654,0.248-1.198,0.114-1.636   C230.674,44.022,230.413,43.655,230.027,43.357z M230.243,42.94c1.285,0.91,2.012,2.045,2.186,3.402s-0.191,2.604-1.099,3.745   c-0.776,0.976-1.744,1.61-2.915,1.903c-1.552,0.392-3.028,0.05-4.433-1.027c-1.405-1.079-2.121-2.384-2.146-3.911   c-0.018-1.204,0.375-2.317,1.182-3.333c0.907-1.141,2.063-1.787,3.456-1.942C227.873,41.623,229.126,42.01,230.243,42.94z    M215.648,34.369l-1.958,3.471l0.172,0.093c0.551,0.299,1.044,0.347,1.485,0.143c0.438-0.207,0.879-0.621,1.322-1.246l0.241,0.133   l-2.518,4.464l-0.245-0.132c0.225-0.517,0.341-0.972,0.352-1.373c0.012-0.4-0.063-0.711-0.221-0.938   c-0.158-0.222-0.443-0.451-0.856-0.674l-1.355,2.402c-0.266,0.468-0.405,0.765-0.424,0.893c-0.02,0.126,0.009,0.254,0.08,0.381   c0.074,0.128,0.232,0.256,0.482,0.394l0.52,0.282c0.81,0.44,1.561,0.61,2.259,0.507c0.698-0.1,1.364-0.473,2.007-1.111l0.234,0.127   l-1.92,2.5l-7.502-4.084l0.132-0.232l0.287,0.154c0.252,0.14,0.482,0.203,0.683,0.2c0.146,0.003,0.285-0.051,0.429-0.164   c0.103-0.072,0.273-0.321,0.517-0.752l3.165-5.606c0.218-0.387,0.341-0.629,0.367-0.729c0.04-0.169,0.024-0.325-0.044-0.467   c-0.099-0.208-0.286-0.386-0.566-0.54l-0.288-0.156l0.132-0.235l7.265,3.956l-1.425,2.521l-0.24-0.131   c0.223-0.684,0.299-1.22,0.227-1.609c-0.073-0.39-0.278-0.762-0.619-1.109c-0.194-0.207-0.62-0.486-1.28-0.844L215.648,34.369z    M211.267,31.061l-1.093,2.412l-0.24-0.104c0.109-0.621,0.132-1.087,0.069-1.407c-0.063-0.321-0.215-0.618-0.453-0.894   c-0.134-0.155-0.412-0.321-0.834-0.505l-0.676-0.295l-3.112,6.865c-0.208,0.458-0.311,0.75-0.313,0.888   c0,0.138,0.056,0.282,0.167,0.429c0.109,0.156,0.292,0.284,0.551,0.397l0.301,0.133l-0.109,0.244l-4.747-2.077l0.109-0.242   l0.303,0.13c0.262,0.115,0.498,0.161,0.698,0.141c0.143-0.009,0.281-0.076,0.415-0.197c0.098-0.081,0.247-0.345,0.45-0.795   l3.115-6.867l-0.657-0.287c-0.611-0.267-1.111-0.336-1.504-0.201c-0.551,0.183-1.023,0.585-1.425,1.195l-0.252-0.109l1.095-2.414   L211.267,31.061z M192.401,23.236l4.781,1.802l-0.098,0.251l-0.236-0.09c-0.359-0.135-0.62-0.189-0.783-0.169   c-0.165,0.023-0.303,0.09-0.408,0.197c-0.106,0.108-0.265,0.424-0.466,0.94l-1.741,4.456c-0.319,0.817-0.469,1.379-0.444,1.691   c0.022,0.311,0.143,0.605,0.359,0.891c0.221,0.282,0.549,0.505,0.987,0.67c0.5,0.19,0.971,0.239,1.407,0.151   c0.441-0.088,0.825-0.293,1.153-0.618c0.325-0.322,0.68-0.967,1.059-1.936l1.452-3.71c0.158-0.407,0.228-0.712,0.207-0.921   c-0.016-0.207-0.078-0.369-0.183-0.486c-0.165-0.181-0.437-0.339-0.81-0.482l0.096-0.25l3.207,1.209l-0.098,0.249l-0.19-0.072   c-0.263-0.098-0.499-0.131-0.711-0.092c-0.214,0.039-0.399,0.144-0.556,0.322c-0.115,0.123-0.245,0.368-0.39,0.738l-1.354,3.457   c-0.417,1.07-0.792,1.816-1.117,2.234c-0.332,0.42-0.853,0.724-1.563,0.913c-0.709,0.191-1.548,0.102-2.509-0.26   c-0.801-0.301-1.378-0.641-1.734-1.019c-0.484-0.508-0.761-1.035-0.834-1.575c-0.069-0.54,0.04-1.186,0.336-1.946l1.742-4.454   c0.205-0.523,0.306-0.857,0.292-1.009c-0.009-0.151-0.071-0.29-0.188-0.42c-0.116-0.132-0.372-0.268-0.763-0.411L192.401,23.236z    M190.794,22.754l-0.742,2.539l-0.252-0.071c0.02-0.632-0.022-1.097-0.132-1.403c-0.107-0.309-0.299-0.583-0.573-0.825   c-0.154-0.135-0.457-0.262-0.898-0.388l-0.712-0.199l-2.109,7.225c-0.141,0.479-0.203,0.786-0.183,0.921   c0.021,0.136,0.096,0.271,0.226,0.404c0.131,0.136,0.332,0.242,0.602,0.316l0.319,0.089l-0.076,0.256l-4.995-1.407l0.074-0.254   l0.318,0.087c0.276,0.078,0.516,0.094,0.711,0.043c0.141-0.028,0.268-0.113,0.382-0.251c0.087-0.094,0.196-0.377,0.334-0.848   l2.11-7.226l-0.691-0.195c-0.641-0.181-1.145-0.181-1.515,0.008c-0.52,0.256-0.932,0.717-1.242,1.378l-0.265-0.075l0.742-2.54   L190.794,22.754z M178.559,29.248l-0.056,0.26l-5.073-1.06l0.054-0.261l0.323,0.068c0.278,0.06,0.518,0.056,0.711-0.006   c0.139-0.04,0.259-0.132,0.359-0.28c0.075-0.099,0.169-0.388,0.271-0.87l1.358-6.27c0.104-0.486,0.143-0.798,0.116-0.931   c-0.024-0.135-0.109-0.26-0.248-0.386c-0.141-0.124-0.348-0.215-0.62-0.272l-0.32-0.067l0.056-0.262l5.075,1.058l-0.056,0.263   l-0.321-0.069c-0.281-0.057-0.52-0.057-0.711,0.006c-0.141,0.042-0.262,0.13-0.368,0.276c-0.076,0.102-0.165,0.394-0.271,0.871   l-1.355,6.271c-0.106,0.488-0.147,0.796-0.118,0.931s0.114,0.263,0.254,0.387c0.141,0.127,0.346,0.219,0.618,0.273L178.559,29.248z    M173.882,18.516l-0.327,2.623l-0.261-0.032c-0.081-0.625-0.196-1.078-0.353-1.365c-0.156-0.288-0.391-0.529-0.7-0.725   c-0.172-0.11-0.491-0.189-0.95-0.245l-0.733-0.088l-0.93,7.461c-0.063,0.497-0.076,0.806-0.036,0.937   c0.04,0.131,0.139,0.253,0.288,0.363c0.151,0.116,0.365,0.188,0.645,0.221l0.327,0.042l-0.031,0.262l-5.157-0.622l0.031-0.263   l0.33,0.04c0.285,0.034,0.521,0.011,0.706-0.068c0.137-0.05,0.248-0.154,0.342-0.308c0.069-0.105,0.131-0.4,0.191-0.89l0.935-7.459   l-0.714-0.087c-0.662-0.079-1.164-0.002-1.496,0.24c-0.473,0.333-0.808,0.852-1.008,1.553l-0.274-0.032l0.328-2.623L173.882,18.516   z M162.679,16.864l-0.146,3.246l-0.304-0.021c-0.08-0.823-0.379-1.499-0.898-2.034c-0.518-0.533-1.095-0.822-1.737-0.865   c-0.497-0.034-0.9,0.068-1.209,0.311c-0.31,0.24-0.475,0.53-0.499,0.869c-0.016,0.214,0.022,0.411,0.113,0.585   c0.123,0.234,0.333,0.474,0.632,0.712c0.216,0.175,0.727,0.49,1.524,0.948c1.117,0.64,1.86,1.221,2.23,1.746   c0.363,0.524,0.524,1.107,0.479,1.75c-0.058,0.812-0.433,1.491-1.117,2.032c-0.687,0.539-1.53,0.776-2.52,0.71   c-0.313-0.023-0.607-0.075-0.879-0.156c-0.272-0.081-0.613-0.223-1.02-0.424c-0.228-0.11-0.417-0.169-0.566-0.181   c-0.127-0.01-0.265,0.027-0.41,0.114c-0.149,0.087-0.274,0.225-0.377,0.415l-0.268-0.018l0.264-3.673l0.265,0.019   c0.144,1.047,0.498,1.861,1.071,2.445c0.572,0.588,1.213,0.904,1.917,0.953c0.547,0.037,0.99-0.078,1.336-0.349   c0.344-0.269,0.531-0.598,0.558-0.984c0.016-0.229-0.029-0.455-0.141-0.68c-0.109-0.222-0.278-0.442-0.521-0.652   c-0.239-0.209-0.669-0.492-1.289-0.849c-0.87-0.497-1.492-0.911-1.862-1.246c-0.374-0.331-0.651-0.694-0.836-1.086   c-0.186-0.392-0.263-0.815-0.232-1.271c0.057-0.772,0.396-1.414,1.013-1.92c0.618-0.503,1.367-0.725,2.248-0.663   c0.321,0.021,0.631,0.078,0.928,0.176c0.225,0.074,0.497,0.2,0.81,0.377c0.32,0.178,0.546,0.271,0.678,0.28   c0.122,0.009,0.228-0.023,0.306-0.094c0.08-0.07,0.158-0.249,0.243-0.537L162.679,16.864z M147.854,16.576l4.896,6.046v-4.191   c0-0.584-0.084-0.979-0.254-1.186c-0.234-0.277-0.627-0.411-1.18-0.402v-0.268h3.278v0.268c-0.419,0.051-0.698,0.121-0.846,0.205   c-0.145,0.083-0.256,0.22-0.336,0.409c-0.081,0.188-0.121,0.515-0.121,0.974v8.117h-0.249l-6.71-8.117v6.199   c0,0.559,0.129,0.937,0.393,1.131c0.259,0.2,0.56,0.298,0.894,0.298h0.234v0.265h-3.52V26.06c0.547-0.004,0.929-0.115,1.143-0.33   c0.214-0.216,0.323-0.582,0.323-1.099v-6.882l-0.215-0.26c-0.208-0.257-0.394-0.426-0.555-0.511   c-0.161-0.081-0.393-0.124-0.696-0.135v-0.268H147.854z M143.745,26.126l0.019,0.264l-5.174,0.355l-0.018-0.265l0.327-0.022   c0.287-0.021,0.516-0.087,0.684-0.2c0.122-0.073,0.209-0.197,0.267-0.364c0.046-0.117,0.052-0.419,0.019-0.91l-0.457-6.393   c-0.036-0.499-0.083-0.806-0.147-0.928c-0.063-0.122-0.18-0.222-0.348-0.304c-0.169-0.079-0.395-0.113-0.671-0.095l-0.329,0.023   l-0.018-0.267l5.174-0.355l0.019,0.266l-0.327,0.023c-0.288,0.02-0.518,0.085-0.685,0.197c-0.122,0.077-0.212,0.198-0.274,0.365   c-0.044,0.118-0.049,0.423-0.015,0.91l0.456,6.394c0.034,0.5,0.083,0.805,0.148,0.928c0.066,0.121,0.182,0.223,0.351,0.304   c0.172,0.083,0.395,0.114,0.671,0.096L143.745,26.126z M126,18.626l5.798,5.219l-0.667-4.139c-0.094-0.578-0.239-0.955-0.439-1.133   c-0.276-0.237-0.686-0.31-1.229-0.216l-0.043-0.263l3.238-0.504l0.042,0.264c-0.407,0.116-0.671,0.225-0.803,0.331   c-0.129,0.106-0.22,0.256-0.266,0.456c-0.049,0.2-0.036,0.527,0.036,0.981l1.294,8.017l-0.248,0.037l-7.921-6.983l0.988,6.12   c0.088,0.552,0.277,0.905,0.568,1.059c0.286,0.157,0.6,0.208,0.931,0.155l0.231-0.035l0.043,0.261l-3.478,0.541l-0.042-0.262   c0.539-0.086,0.897-0.254,1.076-0.502c0.176-0.245,0.226-0.623,0.143-1.134l-1.095-6.796l-0.253-0.225   c-0.246-0.223-0.457-0.359-0.631-0.418c-0.169-0.056-0.408-0.063-0.707-0.026l-0.042-0.267L126,18.626z M118.314,26.825   l-2.361-2.827l-0.522,3.639L118.314,26.825z M118.705,27.27l-3.37,0.948l-0.135,1.026c-0.042,0.341-0.034,0.611,0.024,0.809   c0.077,0.265,0.242,0.428,0.492,0.488c0.146,0.041,0.475,0.008,0.983-0.096l0.074,0.254l-3.171,0.894l-0.075-0.256   c0.325-0.145,0.567-0.364,0.72-0.653c0.156-0.29,0.29-0.837,0.405-1.645l1.229-8.438l0.134-0.037l5.683,6.715   c0.542,0.637,0.942,1.018,1.209,1.146c0.205,0.097,0.455,0.117,0.751,0.06l0.073,0.255l-4.614,1.3l-0.074-0.256l0.188-0.054   c0.372-0.104,0.619-0.229,0.737-0.373c0.083-0.101,0.105-0.223,0.063-0.363c-0.024-0.082-0.063-0.163-0.117-0.24   c-0.024-0.041-0.142-0.194-0.363-0.461L118.705,27.27z M113.125,31.563l0.079,0.254l-4.96,1.489l-0.079-0.252l0.314-0.097   c0.275-0.082,0.481-0.197,0.619-0.343c0.104-0.101,0.163-0.239,0.177-0.416c0.019-0.123-0.043-0.419-0.189-0.89l-1.909-6.129   c-0.148-0.476-0.269-0.769-0.357-0.871c-0.088-0.106-0.225-0.177-0.409-0.219c-0.183-0.041-0.409-0.023-0.674,0.057l-0.316,0.094   l-0.079-0.256l4.96-1.488l0.082,0.254l-0.317,0.094c-0.273,0.083-0.481,0.197-0.619,0.343c-0.102,0.104-0.164,0.24-0.184,0.419   c-0.018,0.123,0.049,0.42,0.193,0.887l1.909,6.13c0.15,0.478,0.266,0.766,0.359,0.872c0.089,0.103,0.229,0.174,0.41,0.218   c0.187,0.043,0.411,0.023,0.677-0.056L113.125,31.563z M98.064,27.379l2.9,7.051c0.155,0.375,0.268,0.594,0.336,0.665   c0.071,0.068,0.16,0.11,0.262,0.12c0.15,0.02,0.34-0.021,0.572-0.111c0.755-0.301,1.228-0.78,1.417-1.446   c0.26-0.898,0.096-2.067-0.498-3.506c-0.477-1.162-1.042-2.015-1.699-2.56c-0.517-0.425-1.046-0.643-1.587-0.657   C99.385,26.925,98.818,27.072,98.064,27.379z M98.062,37.294l-0.102-0.247l0.308-0.122c0.265-0.106,0.455-0.229,0.562-0.368   c0.111-0.141,0.167-0.291,0.176-0.463c0.004-0.108-0.092-0.396-0.283-0.865l-2.445-5.941c-0.189-0.463-0.334-0.742-0.433-0.837   c-0.097-0.097-0.236-0.156-0.426-0.182c-0.187-0.029-0.412,0.01-0.667,0.111l-0.307,0.123l-0.101-0.25l4.117-1.632   c1.101-0.437,2.047-0.64,2.835-0.612c0.967,0.035,1.815,0.33,2.534,0.892c0.725,0.562,1.273,1.303,1.652,2.222   c0.262,0.635,0.398,1.261,0.411,1.88c0.012,0.619-0.074,1.166-0.262,1.645c-0.185,0.481-0.45,0.913-0.796,1.294   c-0.348,0.385-0.807,0.756-1.384,1.121c-0.254,0.161-0.678,0.361-1.272,0.598L98.062,37.294z M87.07,32.022l7.158,3.203   l-1.937-3.733c-0.27-0.523-0.53-0.836-0.776-0.944c-0.335-0.143-0.747-0.087-1.235,0.167l-0.124-0.237l2.92-1.462l0.124,0.239   c-0.349,0.233-0.566,0.419-0.659,0.559c-0.09,0.138-0.127,0.31-0.11,0.515c0.015,0.203,0.13,0.513,0.343,0.922l3.753,7.231   l-0.224,0.11l-9.73-4.238l2.864,5.522c0.259,0.499,0.55,0.777,0.873,0.834c0.322,0.063,0.637,0.015,0.936-0.135l0.208-0.104   l0.123,0.237l-3.134,1.57l-0.125-0.238c0.487-0.245,0.775-0.515,0.867-0.803c0.09-0.288,0.019-0.662-0.221-1.123l-3.181-6.132   l-0.311-0.136c-0.305-0.137-0.549-0.203-0.73-0.206c-0.181-0.002-0.408,0.064-0.683,0.189l-0.124-0.237L87.07,32.022z    M87.979,42.381l0.143,0.227l-4.399,2.699l-0.145-0.225l0.281-0.172c0.243-0.149,0.413-0.314,0.506-0.488   c0.073-0.124,0.092-0.273,0.063-0.447c-0.015-0.124-0.154-0.395-0.419-0.812l-3.46-5.436c-0.269-0.422-0.459-0.671-0.574-0.751   c-0.111-0.079-0.261-0.113-0.452-0.107c-0.188,0.008-0.401,0.081-0.638,0.227l-0.279,0.17l-0.144-0.227l4.398-2.699l0.145,0.226   l-0.279,0.171c-0.243,0.149-0.415,0.313-0.508,0.488c-0.071,0.125-0.095,0.273-0.068,0.45c0.017,0.126,0.158,0.395,0.42,0.81   l3.459,5.437c0.271,0.424,0.458,0.672,0.575,0.75c0.115,0.076,0.269,0.11,0.455,0.106c0.191-0.007,0.404-0.08,0.638-0.225   L87.979,42.381z"/>
	<path fill-rule="evenodd" clip-rule="evenodd" fill="#2B2929" d="M218.951,258.565l-2.174-3.698l-0.359,0.205   c-0.589,0.334-0.999,0.633-1.227,0.904c-0.229,0.273-0.348,0.595-0.353,0.961c-0.002,0.375,0.123,0.781,0.384,1.225   c0.379,0.645,0.812,1.032,1.3,1.164c0.486,0.136,1.068,0.009,1.751-0.377L218.951,258.565z M216.519,254.425l-1.392-2.366   c-0.268-0.458-0.469-0.727-0.591-0.813c-0.13-0.085-0.285-0.126-0.469-0.114c-0.185,0.013-0.475,0.129-0.869,0.353l-0.134-0.229   l4.399-2.495l0.134,0.23c-0.395,0.226-0.643,0.411-0.742,0.567c-0.101,0.151-0.143,0.304-0.134,0.453   c0.013,0.146,0.151,0.449,0.421,0.905l3.221,5.479c0.268,0.457,0.466,0.728,0.591,0.816c0.129,0.085,0.283,0.12,0.47,0.107   c0.184-0.007,0.471-0.125,0.865-0.349l0.137,0.232l-3.992,2.263c-1.041,0.592-1.844,0.95-2.408,1.084   c-0.563,0.132-1.11,0.094-1.639-0.113c-0.526-0.208-0.943-0.566-1.242-1.077c-0.365-0.622-0.439-1.267-0.221-1.934   c0.141-0.424,0.433-0.846,0.881-1.271l-3.744-1.687c-0.488-0.216-0.816-0.337-0.983-0.364c-0.252-0.03-0.49,0.012-0.727,0.131   l-0.137-0.23l2.707-1.535l5.031,2.278L216.519,254.425z M223.612,248.471l3.235,1.808l-0.843-3.58L223.612,248.471z    M223.086,248.192l2.798-2.072l-0.247-1.003c-0.085-0.334-0.189-0.581-0.319-0.747c-0.169-0.219-0.381-0.313-0.638-0.282   c-0.149,0.015-0.445,0.16-0.883,0.436l-0.163-0.212l2.636-1.949l0.163,0.212c-0.247,0.25-0.396,0.539-0.433,0.865   c-0.04,0.324,0.036,0.883,0.221,1.676l1.934,8.311l-0.111,0.082l-7.756-4.27c-0.738-0.404-1.253-0.618-1.548-0.644   c-0.228-0.021-0.468,0.05-0.725,0.208l-0.16-0.213l3.833-2.837l0.165,0.21l-0.158,0.12c-0.311,0.226-0.493,0.429-0.554,0.604   c-0.037,0.124-0.016,0.246,0.074,0.361c0.051,0.068,0.118,0.132,0.196,0.186c0.038,0.03,0.203,0.128,0.508,0.302L223.086,248.192z    M234.345,248.989l-2.34-2.554l0.203-0.179c0.886,0.485,1.735,0.694,2.554,0.624c0.815-0.064,1.514-0.351,2.094-0.862   c0.551-0.488,0.865-1.045,0.954-1.674c0.087-0.629-0.038-1.28-0.388-1.962c-0.348-0.678-0.785-1.306-1.312-1.877   c-0.638-0.695-1.277-1.232-1.924-1.605c-0.645-0.377-1.267-0.525-1.867-0.442c-0.598,0.084-1.148,0.353-1.659,0.805   c-0.178,0.157-0.343,0.336-0.494,0.538c-0.156,0.202-0.297,0.427-0.429,0.673l1.381,1.505c0.261,0.283,0.452,0.451,0.568,0.499   s0.27,0.052,0.455,0.008c0.187-0.043,0.37-0.141,0.551-0.3l0.189-0.167l0.178,0.195l-3.581,3.17l-0.181-0.195   c0.255-0.261,0.41-0.462,0.469-0.613c0.051-0.149,0.051-0.315-0.007-0.494c-0.029-0.096-0.165-0.275-0.41-0.538l-1.378-1.508   c0.283-0.624,0.629-1.212,1.043-1.77c0.41-0.554,0.893-1.074,1.44-1.561c0.698-0.618,1.367-1.038,2.001-1.259   c0.635-0.222,1.269-0.34,1.899-0.348c0.631-0.007,1.222,0.091,1.773,0.295c0.702,0.27,1.335,0.707,1.895,1.315   c0.997,1.089,1.452,2.354,1.36,3.795c-0.091,1.44-0.727,2.685-1.911,3.729c-0.365,0.323-0.718,0.588-1.065,0.791   c-0.186,0.113-0.52,0.258-0.999,0.443c-0.479,0.181-0.754,0.302-0.818,0.357c-0.101,0.091-0.16,0.209-0.179,0.359   c-0.022,0.151,0.024,0.359,0.137,0.626L234.345,248.989z M241.083,233.685l3.508,1.229l-1.463-3.383L241.083,233.685z    M240.517,233.5l2.389-2.518l-0.419-0.946c-0.144-0.313-0.293-0.541-0.446-0.681c-0.205-0.189-0.431-0.244-0.678-0.169   c-0.147,0.038-0.41,0.234-0.794,0.578l-0.196-0.182l2.25-2.37l0.198,0.182c-0.203,0.291-0.297,0.601-0.274,0.926   c0.021,0.326,0.192,0.866,0.516,1.614l3.371,7.854l-0.094,0.101l-8.394-2.881c-0.798-0.271-1.342-0.395-1.639-0.371   c-0.228,0.018-0.452,0.129-0.673,0.327l-0.199-0.181l3.276-3.448l0.196,0.182l-0.137,0.141c-0.263,0.276-0.405,0.51-0.433,0.691   c-0.018,0.129,0.027,0.244,0.137,0.343c0.06,0.06,0.138,0.109,0.225,0.147c0.04,0.022,0.224,0.095,0.554,0.213L240.517,233.5z    M254.94,227.774l-7.867,0.066l3.364,2.581c0.469,0.359,0.837,0.536,1.106,0.533c0.368-0.012,0.718-0.232,1.05-0.666l0.215,0.165   l-2.019,2.536l-0.216-0.166c0.218-0.355,0.334-0.614,0.356-0.778c0.022-0.163-0.016-0.335-0.12-0.512   c-0.103-0.179-0.339-0.41-0.707-0.694l-6.514-4.997l0.153-0.19l10.644-0.197l-4.97-3.817c-0.451-0.343-0.832-0.477-1.153-0.394   c-0.319,0.077-0.582,0.251-0.787,0.51l-0.145,0.181l-0.212-0.163l2.165-2.724l0.214,0.164c-0.334,0.425-0.479,0.787-0.439,1.087   c0.043,0.298,0.268,0.606,0.683,0.926l5.523,4.236l0.339-0.005c0.337-0.001,0.584-0.043,0.752-0.116   c0.162-0.073,0.341-0.227,0.537-0.454l0.214,0.164L254.94,227.774z M249.881,218.644l-0.224-0.148l2.901-4.224l0.223,0.148   l-0.185,0.268c-0.161,0.234-0.248,0.454-0.261,0.651c-0.014,0.139,0.028,0.285,0.131,0.432c0.063,0.106,0.302,0.298,0.716,0.574   l5.412,3.585c0.422,0.278,0.698,0.43,0.837,0.455c0.134,0.025,0.287-0.001,0.457-0.082c0.169-0.082,0.332-0.235,0.488-0.462   l0.185-0.268l0.226,0.15l-2.901,4.224l-0.228-0.149l0.186-0.268c0.16-0.234,0.249-0.451,0.263-0.65   c0.012-0.143-0.029-0.286-0.125-0.438c-0.066-0.107-0.308-0.298-0.72-0.572l-5.412-3.584c-0.422-0.278-0.698-0.433-0.834-0.456   c-0.139-0.023-0.292,0.006-0.46,0.085c-0.174,0.082-0.336,0.234-0.492,0.461L249.881,218.644z M260.894,209.918l-2.714-1.418   c-0.45-0.233-0.74-0.356-0.878-0.366c-0.141-0.01-0.29,0.035-0.45,0.133c-0.163,0.098-0.309,0.265-0.438,0.507l-0.154,0.285   l-0.24-0.124l2.438-4.499l0.238,0.125l-0.156,0.284c-0.134,0.251-0.196,0.475-0.189,0.675c0,0.143,0.061,0.28,0.176,0.417   c0.074,0.099,0.333,0.264,0.776,0.494l5.763,3.011c0.447,0.232,0.74,0.355,0.878,0.369c0.136,0.013,0.285-0.033,0.446-0.129   c0.158-0.099,0.308-0.268,0.437-0.51l0.154-0.285l0.241,0.124l-2.436,4.499l-0.241-0.125l0.154-0.284   c0.136-0.248,0.198-0.476,0.191-0.673c-0.002-0.145-0.056-0.282-0.169-0.425c-0.078-0.1-0.339-0.264-0.778-0.492l-2.479-1.297   l-1.646,3.04l2.479,1.295c0.448,0.234,0.742,0.356,0.878,0.369c0.139,0.013,0.286-0.032,0.448-0.131   c0.163-0.102,0.311-0.271,0.439-0.514l0.152-0.279l0.24,0.125l-2.433,4.495l-0.243-0.126l0.154-0.277   c0.136-0.253,0.2-0.479,0.191-0.674c-0.005-0.143-0.061-0.282-0.17-0.425c-0.08-0.099-0.339-0.266-0.778-0.494l-5.762-3.01   c-0.448-0.234-0.742-0.355-0.879-0.369c-0.141-0.012-0.287,0.033-0.448,0.133c-0.165,0.102-0.312,0.27-0.441,0.513l-0.151,0.278   l-0.238-0.125l2.435-4.495l0.238,0.125l-0.151,0.281c-0.138,0.252-0.2,0.477-0.191,0.674c0,0.139,0.06,0.281,0.172,0.421   c0.078,0.1,0.332,0.267,0.775,0.496l2.714,1.417L260.894,209.918z M270.3,201.906l-7.075-3.094   c-0.375-0.164-0.613-0.245-0.712-0.249c-0.101-0.002-0.193,0.029-0.274,0.092c-0.122,0.089-0.231,0.248-0.332,0.471   c-0.33,0.73-0.33,1.398,0.005,2.008c0.448,0.823,1.392,1.551,2.836,2.184c1.164,0.509,2.177,0.735,3.035,0.682   c0.671-0.048,1.206-0.251,1.605-0.611C269.669,203.133,269.972,202.641,270.3,201.906z M263.287,194.772l0.247,0.106l-0.136,0.297   c-0.116,0.257-0.165,0.475-0.143,0.649c0.02,0.175,0.084,0.323,0.2,0.452c0.073,0.081,0.348,0.225,0.814,0.43l5.963,2.606   c0.463,0.202,0.765,0.304,0.905,0.307c0.136,0.004,0.278-0.049,0.435-0.159c0.149-0.106,0.287-0.287,0.396-0.537l0.137-0.294   l0.247,0.107l-1.807,3.985c-0.481,1.063-1.019,1.855-1.605,2.374c-0.718,0.634-1.538,0.999-2.455,1.088   c-0.918,0.088-1.837-0.068-2.758-0.472c-0.641-0.278-1.18-0.636-1.626-1.072c-0.446-0.438-0.771-0.892-0.977-1.36   c-0.205-0.476-0.321-0.966-0.341-1.479c-0.021-0.511,0.044-1.094,0.205-1.747c0.066-0.289,0.229-0.723,0.488-1.298L263.287,194.772   z M275.311,191.645l-7.504,2.322l3.985,1.502c0.555,0.21,0.961,0.274,1.217,0.193c0.349-0.116,0.618-0.427,0.808-0.937l0.254,0.096   l-1.175,3.005l-0.257-0.097c0.103-0.403,0.139-0.685,0.109-0.848c-0.026-0.163-0.115-0.316-0.268-0.456   c-0.149-0.142-0.448-0.295-0.883-0.46l-7.716-2.909l0.09-0.229l10.119-3.245l-5.892-2.221c-0.53-0.198-0.937-0.215-1.218-0.045   c-0.28,0.166-0.481,0.408-0.602,0.713l-0.085,0.216l-0.252-0.096l1.265-3.228l0.249,0.096c-0.191,0.5-0.223,0.892-0.096,1.165   c0.132,0.273,0.438,0.504,0.93,0.69l6.541,2.466l0.325-0.104c0.319-0.101,0.547-0.208,0.683-0.327   c0.136-0.117,0.261-0.314,0.379-0.588l0.252,0.094L275.311,191.645z"/>
	<polygon fill-rule="evenodd" clip-rule="evenodd" fill="#00A1E3" points="150.892,269.555 152.092,273.926 155.967,273.926    152.832,276.628 154.029,281.001 150.892,278.301 147.755,281.001 148.954,276.628 145.817,273.926 149.694,273.926  "/>
	<polygon fill="none" stroke="#00A1E3" stroke-width="0.216" stroke-miterlimit="2.6131" points="150.892,269.555 152.092,273.926    155.967,273.926 152.832,276.628 154.029,281.001 150.892,278.301 147.755,281.001 148.954,276.628 145.817,273.926    149.694,273.926  "/>
	<polygon fill-rule="evenodd" clip-rule="evenodd" fill="#00A1E3" points="167.679,268.306 168.876,272.677 172.754,272.677    169.616,275.379 170.813,279.75 167.679,277.05 164.541,279.75 165.738,275.379 162.604,272.677 166.479,272.677  "/>
	<polygon fill="none" stroke="#00A1E3" stroke-width="0.216" stroke-miterlimit="2.6131" points="167.679,268.306 168.876,272.677    172.754,272.677 169.616,275.379 170.813,279.75 167.679,277.05 164.541,279.75 165.738,275.379 162.604,272.677 166.479,272.677     "/>
	<polygon fill-rule="evenodd" clip-rule="evenodd" fill="#00A1E3" points="184.042,265.251 185.239,269.624 189.117,269.624    185.979,272.326 187.18,276.699 184.042,273.997 180.904,276.699 182.102,272.326 178.967,269.624 182.842,269.624  "/>
	<polygon fill="none" stroke="#00A1E3" stroke-width="0.216" stroke-miterlimit="2.6131" points="184.042,265.251 185.239,269.624    189.117,269.624 185.979,272.326 187.18,276.699 184.042,273.997 180.904,276.699 182.102,272.326 178.967,269.624    182.842,269.624  "/>
	<polygon fill-rule="evenodd" clip-rule="evenodd" fill="#00A1E3" points="134.389,268.306 135.588,272.677 139.463,272.677    136.328,275.379 137.525,279.75 134.389,277.05 131.251,279.75 132.45,275.379 129.314,272.677 133.19,272.677  "/>
	<polygon fill="none" stroke="#00A1E3" stroke-width="0.216" stroke-miterlimit="2.6131" points="134.389,268.306 135.588,272.677    139.463,272.677 136.328,275.379 137.525,279.75 134.389,277.05 131.251,279.75 132.45,275.379 129.314,272.677 133.19,272.677     "/>
	<polygon fill-rule="evenodd" clip-rule="evenodd" fill="#00A1E3" points="117.039,265.112 118.237,269.483 122.114,269.483    118.978,272.187 120.175,276.559 117.039,273.858 113.903,276.559 115.1,272.187 111.964,269.483 115.84,269.483  "/>
	<polygon fill="none" stroke="#00A1E3" stroke-width="0.216" stroke-miterlimit="2.6131" points="117.039,265.112 118.237,269.483    122.114,269.483 118.978,272.187 120.175,276.559 117.039,273.858 113.903,276.559 115.1,272.187 111.964,269.483 115.84,269.483     "/>
	<path fill-rule="evenodd" clip-rule="evenodd" fill="#E31F24" d="M150,138.468c4.97,0,9,3.957,9,8.837c0,4.881-4.03,8.838-9,8.838   c-4.969,0-8.999-3.957-8.999-8.838C141.001,142.425,145.03,138.468,150,138.468"/>
	<path fill-rule="evenodd" clip-rule="evenodd" fill="#00A1E3" d="M130.191,142.681c-42.744-8.89-48.457-36.781-43.132-66.167   c-10.962,31.418-4.895,59.923,36.966,72.439c-27.057,24.282-22.198,46.4-2.836,67.537c-16.861-30.765-13.015-49.047,9.499-62.713   C129.834,150.189,129.225,146.591,130.191,142.681"/>
	<path fill-rule="evenodd" clip-rule="evenodd" fill="#00A1E3" d="M169.708,140.262c34.077-17.907,20.143-45.399,9.511-64.992   c17.723,13.408,29.655,48.47-2.596,69.284c31.834,7.441,53.728,28.906,36.306,72.031c9.555-33.656-11.415-64.355-41.471-66.876   C171.487,146.024,171.525,143.867,169.708,140.262"/>
	<path fill-rule="evenodd" clip-rule="evenodd" fill="#00A1E3" d="M143.128,127.316c-14.678-40.415,11.231-59.425,39.509-70.365   c-32.994,7.286-59.249,26.917-48.179,68.492c-35.234-9.915-51.873,5.735-60.064,33.004c17.853-30.222,35.726-36.581,59.371-24.904   C136.428,130.95,139.23,128.557,143.128,127.316"/>
	<path fill-rule="evenodd" clip-rule="evenodd" fill="#00A1E3" d="M163.446,131.828c27.782-33.118,56.186-20.651,80.26-2.434   c-23.303-24.066-52.426-36.508-83.072-5.833c-8.391-35.799-28.663-44.886-57.275-37.224c35.574-0.467,47.905,14.874,49.841,40.797   C156.832,128.047,160.362,129.179,163.446,131.828"/>
	<path fill-rule="evenodd" clip-rule="evenodd" fill="#00A1E3" d="M145.917,167.015c5.399,40.336,28.644,35.321,52.071,40.217   c-22.377,1.463-47.356,7.002-58.57-36.607c-21.387,26.089-63.833,24.267-81.923-4.551c25.916,29.397,62.508,19.278,79.522-3.229   C140.172,164.834,141.84,166.601,145.917,167.015"/>
	<path fill-rule="evenodd" clip-rule="evenodd" fill="#00A1E3" d="M162.458,160.462c38.255,15.605,45.995-5.387,62.041-22.853   c-9.914,19.757-18.063,42.487-62.114,30.183c12.287,31.245-7.867,66.115-42.325,67.065c38.887-7.313,45.585-43.186,34.267-68.918   C157.659,164.253,160.052,163.72,162.458,160.462"/>
	<path fill-rule="evenodd" clip-rule="evenodd" fill="#E31F24" d="M90.736,67.855c2.795,0,5.06,2.226,5.06,4.97   c0,2.745-2.265,4.969-5.06,4.969c-2.794,0-5.059-2.225-5.059-4.969C85.677,70.081,87.942,67.855,90.736,67.855"/>
	<path fill-rule="evenodd" clip-rule="evenodd" fill="#E31F24" d="M187.36,53.686c2.794,0,5.06,2.224,5.06,4.969   c0,2.744-2.266,4.968-5.06,4.968c-2.795,0-5.061-2.224-5.061-4.968C182.3,55.91,184.565,53.686,187.36,53.686"/>
	<path fill-rule="evenodd" clip-rule="evenodd" fill="#E31F24" d="M245.576,128.675c2.795,0,5.061,2.224,5.061,4.969   c0,2.744-2.266,4.969-5.061,4.969c-2.794,0-5.06-2.225-5.06-4.969C240.517,130.899,242.782,128.675,245.576,128.675"/>
	<path fill-rule="evenodd" clip-rule="evenodd" fill="#E31F24" d="M210.165,215.473c2.797,0,5.06,2.224,5.06,4.969   c0,2.744-2.263,4.969-5.06,4.969c-2.794,0-5.058-2.225-5.058-4.969C205.107,217.696,207.371,215.473,210.165,215.473"/>
	<path fill-rule="evenodd" clip-rule="evenodd" fill="#E31F24" d="M115.343,229.053c2.793,0,5.06,2.226,5.06,4.968   c0,2.745-2.267,4.97-5.06,4.97c-2.795,0-5.06-2.225-5.06-4.97C110.284,231.278,112.548,229.053,115.343,229.053"/>
	<path fill-rule="evenodd" clip-rule="evenodd" fill="#E31F24" d="M55.929,156.426c2.794,0,5.06,2.224,5.06,4.968   c0,2.745-2.266,4.969-5.06,4.969c-2.794,0-5.06-2.225-5.06-4.969C50.869,158.65,53.135,156.426,55.929,156.426"/>
	<path fill-rule="evenodd" clip-rule="evenodd" fill="#00A1E3" d="M149.999,0C232.83,0,300,65.963,300,147.305   c0,81.345-67.17,147.306-150.001,147.306C67.17,294.61,0,228.649,0,147.305C0,65.963,67.17,0,149.999,0 M149.999,5.421   c79.782,0,144.48,63.538,144.48,141.884c0,78.35-64.698,141.887-144.48,141.887c-79.779,0-144.478-63.537-144.478-141.887   C5.521,68.958,70.22,5.421,149.999,5.421z"/>
	<path fill-rule="evenodd" clip-rule="evenodd" fill="#00A1E3" d="M149.999,38.403c61.237,0,110.895,48.766,110.895,108.903   S211.235,256.21,149.999,256.21c-61.235,0-110.893-48.768-110.893-108.904S88.764,38.403,149.999,38.403 M149.999,42.41   c58.983,0,106.815,46.974,106.815,104.896c0,57.924-47.832,104.896-106.815,104.896c-58.981,0-106.813-46.972-106.813-104.896   C43.186,89.383,91.017,42.41,149.999,42.41z"/>
</g>
</svg>